<svg 
 xmlns="http://www.w3.org/2000/svg"
 xmlns:xlink="http://www.w3.org/1999/xlink"
 width="44px" height="44px">
<path fill-rule="evenodd"  fill="rgb(255, 255, 255)"
 d="M21.984,43.594 C10.050,43.594 0.375,33.926 0.375,22.000 C0.375,10.074 10.050,0.406 21.984,0.406 C33.919,0.406 43.594,10.074 43.594,22.000 C43.594,33.926 33.919,43.594 21.984,43.594 ZM15.258,16.015 C14.903,15.626 14.296,15.597 13.906,15.952 L12.673,17.074 C12.284,17.428 12.255,18.035 12.610,18.425 L13.171,19.041 L16.288,22.118 C16.632,22.497 16.617,23.078 16.255,23.439 L13.262,26.380 C12.889,26.751 12.887,27.359 13.259,27.732 L14.432,28.912 C14.803,29.285 15.411,29.287 15.784,28.915 L21.203,23.562 C21.565,23.201 21.580,22.620 21.236,22.241 L15.819,16.632 L15.258,16.015 ZM32.556,22.241 L21.739,10.332 L21.177,9.715 C20.823,9.326 20.216,9.297 19.826,9.652 L18.593,10.774 C18.204,11.128 18.175,11.735 18.530,12.125 L19.091,12.741 L27.608,22.118 C27.952,22.497 27.937,23.078 27.575,23.439 L18.282,32.680 C17.909,33.051 17.907,33.659 18.279,34.032 L19.452,35.212 C19.823,35.585 20.431,35.587 20.804,35.215 L32.523,23.562 C32.885,23.201 32.900,22.620 32.556,22.241 Z"/>
</svg>