<svg 
 xmlns="http://www.w3.org/2000/svg"
 xmlns:xlink="http://www.w3.org/1999/xlink"
 width="31px" height="31px">
<path fill-rule="evenodd"  fill="rgb(255, 255, 255)"
 d="M15.461,21.824 C15.435,21.825 15.408,21.825 15.382,21.825 C13.768,21.825 12.189,21.226 10.982,20.021 C9.757,18.794 9.159,17.184 9.178,15.542 C9.202,13.901 9.846,12.252 11.123,10.974 C12.400,9.696 14.051,9.052 15.691,9.029 C15.716,9.029 15.742,9.029 15.767,9.029 C17.383,9.029 18.962,9.627 20.169,10.834 C21.394,12.059 21.993,13.670 21.973,15.312 C21.951,16.952 21.306,18.602 20.029,19.880 C18.750,21.158 17.102,21.801 15.461,21.824 ZM19.347,16.195 C18.872,15.964 18.149,15.338 18.149,15.338 L18.149,15.040 C18.378,14.795 18.600,14.278 18.681,14.183 C18.763,14.088 18.885,13.681 18.885,13.572 C18.885,13.463 18.749,13.368 18.749,13.368 L18.749,12.649 C18.627,11.440 17.413,11.516 17.413,11.516 C17.413,11.516 16.199,11.440 16.076,12.649 L16.076,13.368 C16.076,13.368 15.941,13.463 15.941,13.572 C15.941,13.681 16.063,14.088 16.144,14.183 C16.226,14.278 16.448,14.795 16.677,15.040 L16.677,15.338 C16.677,15.338 15.954,15.964 15.478,16.195 C15.332,16.266 15.170,16.341 15.015,16.415 C14.712,16.331 14.460,16.256 14.391,16.186 C14.192,15.987 14.263,15.505 14.263,15.505 C15.143,15.476 15.640,15.150 15.640,15.150 C15.214,14.866 15.285,14.029 15.072,12.723 C14.859,11.417 13.473,11.439 13.473,11.439 C13.473,11.439 12.086,11.417 11.873,12.723 C11.660,14.029 11.731,14.866 11.305,15.150 C11.305,15.150 11.802,15.476 12.682,15.505 C12.682,15.505 12.753,15.987 12.555,16.186 C12.399,16.341 11.037,16.688 10.524,16.930 C10.381,16.997 10.463,17.262 10.463,17.262 C10.699,18.040 11.122,18.767 11.733,19.379 C12.733,20.378 14.042,20.874 15.380,20.874 C15.401,20.874 15.423,20.874 15.445,20.874 C16.805,20.854 18.172,20.321 19.231,19.262 C19.834,18.660 20.266,17.957 20.530,17.213 C20.530,17.213 20.476,16.701 19.347,16.195 ZM27.797,24.935 L23.324,20.877 L22.742,20.349 C23.796,18.844 24.342,17.091 24.364,15.343 C24.395,13.099 23.562,10.842 21.861,9.143 C21.428,8.709 20.959,8.333 20.464,8.013 C19.047,7.096 17.414,6.639 15.781,6.639 C15.762,6.639 15.742,6.639 15.723,6.639 L15.660,6.638 C13.414,6.667 11.158,7.556 9.431,9.282 C7.705,11.009 6.816,13.265 6.787,15.511 C6.756,17.755 7.591,20.012 9.291,21.712 C10.961,23.382 13.166,24.216 15.370,24.216 C15.410,24.216 15.451,24.216 15.491,24.215 C17.344,24.192 19.203,23.581 20.767,22.399 L21.289,22.981 L25.331,27.484 C22.656,29.681 19.232,31.000 15.500,31.000 C6.940,31.000 0.000,24.060 0.000,15.500 C0.000,6.940 6.940,-0.000 15.500,-0.000 C24.060,-0.000 31.000,6.940 31.000,15.500 C31.000,19.051 29.805,22.322 27.797,24.935 Z"/>
</svg>