<svg 
 xmlns="http://www.w3.org/2000/svg"
 xmlns:xlink="http://www.w3.org/1999/xlink"
 width="31px" height="31px">
<path fill-rule="evenodd"  fill="rgb(255, 255, 255)"
 d="M15.482,0.000 C7.264,0.000 0.540,6.381 0.000,14.452 L14.895,14.452 C15.142,14.452 15.266,14.154 15.091,13.979 L13.105,11.995 C12.997,11.887 12.997,11.711 13.105,11.603 L14.196,10.514 C14.304,10.405 14.480,10.405 14.588,10.514 L19.382,15.303 C19.491,15.411 19.491,15.587 19.383,15.695 L14.589,20.496 C14.481,20.604 14.305,20.604 14.196,20.496 L13.104,19.408 C12.996,19.300 12.995,19.125 13.104,19.016 L15.097,17.020 C15.271,16.846 15.147,16.548 14.900,16.548 L0.000,16.548 C0.540,24.619 7.264,31.000 15.482,31.000 C24.052,31.000 31.000,24.060 31.000,15.500 C31.000,6.940 24.052,0.000 15.482,0.000 ZM15.283,24.928 C11.517,24.928 8.156,22.729 6.641,19.300 C6.577,19.157 6.645,18.990 6.790,18.931 L8.220,18.351 C8.358,18.295 8.516,18.357 8.577,18.493 C9.764,21.138 12.367,22.833 15.283,22.833 C19.330,22.833 22.624,19.543 22.624,15.500 C22.624,11.457 19.330,8.167 15.283,8.167 C12.365,8.167 9.765,9.861 8.588,12.504 C8.527,12.640 8.369,12.703 8.232,12.647 L6.800,12.071 C6.654,12.013 6.586,11.846 6.649,11.702 C8.153,8.272 11.511,6.072 15.283,6.072 C20.488,6.072 24.721,10.302 24.721,15.500 C24.721,20.698 20.488,24.928 15.283,24.928 Z"/>
</svg>