<svg 
 xmlns="http://www.w3.org/2000/svg"
 xmlns:xlink="http://www.w3.org/1999/xlink"
 width="31px" height="31px">
<path fill-rule="evenodd"  fill="rgb(255, 255, 255)"
 d="M15.500,-0.000 C6.940,-0.000 0.000,6.940 0.000,15.500 C0.000,24.060 6.940,31.000 15.500,31.000 C24.060,31.000 31.000,24.060 31.000,15.500 C31.000,6.940 24.060,-0.000 15.500,-0.000 ZM20.242,5.034 L22.774,5.034 L24.979,12.508 C24.903,13.701 23.871,14.650 22.613,14.650 C21.306,14.650 20.242,13.625 20.242,12.366 L20.242,5.034 ZM13.129,5.034 L17.871,5.034 L17.871,12.366 C17.871,13.625 16.808,14.650 15.500,14.650 C14.193,14.650 13.129,13.625 13.129,12.366 L13.129,5.034 ZM8.225,5.034 L10.758,5.034 L10.758,12.366 C10.758,13.625 9.694,14.650 8.386,14.650 C7.129,14.650 6.097,13.701 6.020,12.508 L8.225,5.034 ZM17.436,25.037 L13.563,25.037 L13.563,21.308 L17.436,21.308 L17.436,25.037 ZM12.378,19.025 C11.723,19.025 11.192,19.536 11.192,20.166 L11.192,25.037 L6.016,25.037 L6.016,16.320 C6.713,16.709 7.523,16.933 8.386,16.933 C9.802,16.933 11.074,16.333 11.943,15.383 C12.813,16.333 14.085,16.933 15.500,16.933 C16.915,16.933 18.187,16.333 19.056,15.384 C19.926,16.333 21.198,16.933 22.613,16.933 C23.476,16.933 24.286,16.709 24.985,16.320 L24.985,25.037 L19.808,25.037 L19.808,20.166 C19.808,19.536 19.277,19.025 18.622,19.025 L12.378,19.025 Z"/>
</svg>