<svg 
 xmlns="http://www.w3.org/2000/svg"
 xmlns:xlink="http://www.w3.org/1999/xlink"
 width="43px" height="43px">
<path fill-rule="evenodd"  fill="rgb(236, 0, 140)"
 d="M21.841,42.132 C10.245,42.132 0.812,32.743 0.812,21.203 C0.812,9.663 10.245,0.274 21.841,0.274 C33.436,0.274 42.869,9.663 42.869,21.203 C42.869,32.743 33.436,42.132 21.841,42.132 ZM31.547,28.606 L24.440,22.626 L22.470,24.377 C22.337,24.496 22.168,24.556 22.000,24.556 C21.832,24.556 21.664,24.496 21.530,24.377 L19.560,22.626 L12.454,28.606 L31.547,28.606 ZM11.408,27.656 L18.503,21.686 L11.408,15.375 L11.408,27.656 ZM12.413,14.394 L22.000,22.921 L31.587,14.394 L12.413,14.394 ZM32.592,15.375 L25.497,21.686 L32.592,27.655 L32.592,15.375 Z"/>
</svg>