<svg 
 xmlns="http://www.w3.org/2000/svg"
 xmlns:xlink="http://www.w3.org/1999/xlink"
 width="43px" height="43px">
<path fill-rule="evenodd"  fill="rgb(236, 0, 140)"
 d="M21.312,0.274 C9.717,0.274 0.283,9.663 0.283,21.203 C0.283,32.743 9.717,42.132 21.312,42.132 C32.907,42.132 42.340,32.743 42.340,21.203 C42.340,9.663 32.907,0.274 21.312,0.274 ZM26.079,15.070 L25.295,14.936 C24.789,14.850 24.309,14.806 23.867,14.806 C23.072,14.806 22.799,14.990 22.719,15.070 C22.675,15.114 22.455,15.380 22.455,16.354 L22.455,16.941 L25.508,16.941 L25.508,20.514 L22.455,20.514 L22.455,31.521 L18.212,31.521 L18.212,20.514 L15.866,20.514 L15.866,16.941 L18.212,16.941 L18.212,16.142 C18.212,15.028 18.320,14.201 18.543,13.615 C18.863,12.791 19.424,12.121 20.212,11.621 C21.438,10.841 23.457,10.676 25.977,11.149 L26.757,11.295 L26.079,15.070 Z"/>
</svg>