<svg 
 xmlns="http://www.w3.org/2000/svg"
 xmlns:xlink="http://www.w3.org/1999/xlink"
 width="28px" height="23px">
<path fill-rule="evenodd"  fill="rgb(23, 23, 23)"
 d="M27.432,22.067 L10.091,22.066 L10.092,14.417 L11.371,14.417 L11.371,20.788 L26.153,20.789 L26.154,1.524 L11.372,1.522 L11.372,3.237 L10.093,3.237 L10.093,0.244 L27.434,0.245 L27.432,22.067 ZM17.605,6.272 C18.719,7.113 19.181,8.157 19.370,8.799 L20.236,8.781 L20.430,9.078 C21.094,10.094 22.102,12.795 21.729,14.831 C22.685,15.931 23.368,16.888 23.797,17.546 C23.990,17.842 23.906,18.238 23.610,18.431 C23.555,18.467 23.497,18.493 23.437,18.510 C23.174,18.585 22.882,18.485 22.725,18.244 C22.298,17.588 21.693,16.752 20.893,15.819 C20.750,15.879 20.621,15.954 20.465,15.999 C19.206,16.359 17.525,16.247 15.450,15.663 C13.579,15.136 12.079,14.417 12.016,14.386 L11.386,14.082 L11.950,13.139 C11.533,13.035 11.008,12.889 10.464,12.699 L10.339,12.655 L10.242,12.566 C10.114,12.449 9.892,12.228 9.584,11.922 C8.185,10.531 4.908,7.274 2.080,5.425 L0.788,4.581 L2.300,4.265 C5.636,3.567 9.016,3.515 12.074,4.115 C15.428,4.773 17.156,5.932 17.605,6.272 ZM4.049,5.249 C6.628,7.180 9.262,9.799 10.487,11.016 C10.706,11.234 10.890,11.417 11.013,11.535 C12.085,11.897 13.058,12.077 13.068,12.079 L13.975,12.245 L13.211,13.523 C14.901,14.241 17.991,15.254 19.948,14.791 C19.368,14.182 18.737,13.556 17.991,12.909 C15.565,10.806 12.822,9.121 9.837,7.902 C9.510,7.768 9.353,7.395 9.487,7.068 C9.620,6.742 9.994,6.585 10.321,6.718 C14.943,8.607 18.276,11.243 20.537,13.545 C20.456,12.287 19.967,10.879 19.534,10.074 L18.277,10.100 L18.221,9.508 C18.216,9.461 18.069,8.225 16.834,7.292 C15.552,6.323 10.896,4.218 4.049,5.249 Z"/>
</svg>