<svg 
 xmlns="http://www.w3.org/2000/svg"
 xmlns:xlink="http://www.w3.org/1999/xlink"
 width="28px" height="21px">
<path fill-rule="evenodd"  fill="rgb(23, 23, 23)"
 d="M27.323,7.084 C27.246,7.191 27.124,7.338 26.953,7.491 C26.782,7.646 26.562,7.806 26.304,7.943 C26.047,8.082 25.753,8.196 25.449,8.279 C25.373,8.299 25.298,8.318 25.219,8.335 C25.141,8.351 25.060,8.368 24.990,8.379 C24.838,8.405 24.681,8.425 24.530,8.434 C24.378,8.445 24.230,8.444 24.088,8.439 C23.947,8.432 23.812,8.419 23.687,8.399 C23.604,8.386 23.527,8.371 23.453,8.354 C23.513,8.404 23.576,8.454 23.646,8.505 C23.740,8.569 23.841,8.635 23.953,8.696 C24.008,8.725 24.065,8.757 24.125,8.784 C24.154,8.798 24.184,8.812 24.214,8.827 L24.226,8.832 L24.229,8.833 C24.227,8.833 24.235,8.836 24.225,8.833 L24.226,8.833 L24.233,8.836 L24.258,8.846 L24.309,8.867 C24.379,8.896 24.439,8.918 24.502,8.942 C24.566,8.965 24.633,8.988 24.700,9.008 C24.967,9.089 25.244,9.143 25.508,9.161 C25.773,9.180 26.023,9.164 26.236,9.127 C26.448,9.090 26.622,9.034 26.740,8.986 C26.859,8.938 26.921,8.900 26.921,8.900 C26.929,8.895 26.940,8.897 26.946,8.906 C26.950,8.913 26.949,8.923 26.943,8.928 C26.943,8.928 26.887,8.981 26.777,9.054 C26.667,9.128 26.501,9.222 26.287,9.306 C26.073,9.391 25.811,9.464 25.521,9.502 C25.231,9.542 24.916,9.546 24.602,9.517 C24.524,9.510 24.447,9.501 24.367,9.490 C24.288,9.477 24.206,9.464 24.137,9.451 C23.985,9.422 23.832,9.385 23.687,9.341 C23.541,9.298 23.402,9.246 23.271,9.191 C23.141,9.135 23.020,9.075 22.910,9.013 C22.861,8.986 22.815,8.958 22.771,8.931 C22.836,8.998 22.913,9.071 23.002,9.148 C23.174,9.297 23.391,9.458 23.642,9.602 C23.894,9.745 24.181,9.872 24.484,9.958 L24.498,9.963 L24.500,9.963 C24.507,9.964 24.492,9.962 24.494,9.962 L24.498,9.963 L24.506,9.965 L24.536,9.973 L24.597,9.987 L24.719,10.017 C24.795,10.031 24.871,10.045 24.946,10.060 C25.025,10.070 25.103,10.080 25.180,10.090 C25.258,10.097 25.335,10.103 25.411,10.109 C25.487,10.112 25.562,10.114 25.636,10.117 C25.710,10.117 25.782,10.117 25.853,10.116 C25.994,10.113 26.128,10.105 26.252,10.095 C26.748,10.053 27.075,9.970 27.075,9.970 C27.075,9.970 26.770,10.111 26.279,10.245 C26.157,10.279 26.022,10.311 25.879,10.342 C25.807,10.355 25.733,10.369 25.657,10.384 C25.580,10.395 25.501,10.406 25.422,10.418 C25.341,10.426 25.259,10.435 25.176,10.443 C25.092,10.448 25.007,10.452 24.922,10.457 C24.834,10.456 24.743,10.457 24.655,10.455 L24.529,10.448 L24.467,10.445 L24.435,10.443 L24.427,10.443 L24.424,10.443 L24.412,10.441 L24.395,10.439 C24.041,10.407 23.689,10.326 23.369,10.216 C23.056,10.109 22.776,9.974 22.542,9.840 C22.551,9.850 22.558,9.860 22.567,9.870 C22.716,10.043 22.907,10.233 23.135,10.412 C23.363,10.590 23.629,10.757 23.917,10.886 L23.930,10.892 L23.932,10.893 C23.939,10.895 23.924,10.891 23.926,10.891 L23.930,10.893 L23.937,10.896 L23.966,10.907 L24.025,10.931 L24.141,10.978 C24.214,11.003 24.287,11.028 24.360,11.053 C24.436,11.074 24.511,11.096 24.586,11.117 C24.662,11.134 24.738,11.151 24.812,11.168 C24.887,11.182 24.961,11.196 25.034,11.209 C25.107,11.219 25.179,11.230 25.248,11.240 C25.389,11.256 25.523,11.268 25.647,11.276 C26.144,11.305 26.479,11.271 26.479,11.271 C26.479,11.271 26.157,11.366 25.652,11.429 C25.526,11.444 25.388,11.457 25.242,11.466 C25.168,11.469 25.093,11.472 25.016,11.476 C24.938,11.476 24.859,11.476 24.778,11.476 C24.697,11.472 24.615,11.469 24.532,11.465 C24.448,11.458 24.363,11.450 24.278,11.442 C24.191,11.429 24.101,11.417 24.014,11.402 L23.891,11.377 L23.829,11.365 L23.798,11.359 L23.791,11.357 L23.787,11.356 L23.776,11.353 L23.759,11.349 C23.414,11.266 23.077,11.136 22.776,10.980 C22.474,10.825 22.210,10.646 21.995,10.476 C21.929,10.424 21.870,10.374 21.814,10.325 C21.820,10.335 21.825,10.346 21.832,10.356 C21.945,10.554 22.095,10.778 22.285,10.996 C22.475,11.215 22.704,11.429 22.961,11.611 L22.973,11.620 L22.975,11.621 C22.981,11.624 22.968,11.617 22.970,11.618 L22.973,11.620 L22.980,11.625 L23.006,11.642 L23.059,11.676 L23.164,11.744 C23.231,11.782 23.298,11.821 23.364,11.859 C23.435,11.895 23.505,11.930 23.574,11.965 C23.646,11.997 23.716,12.028 23.786,12.059 C23.857,12.087 23.927,12.114 23.996,12.141 C24.066,12.165 24.134,12.189 24.201,12.212 C24.335,12.256 24.464,12.293 24.585,12.324 C25.067,12.448 25.403,12.478 25.403,12.478 C25.403,12.478 25.068,12.510 24.560,12.475 C24.434,12.466 24.296,12.452 24.151,12.433 C24.078,12.422 24.003,12.411 23.927,12.399 C23.851,12.385 23.773,12.370 23.694,12.355 C23.615,12.336 23.535,12.317 23.454,12.297 C23.373,12.274 23.291,12.250 23.209,12.226 C23.127,12.196 23.040,12.167 22.958,12.136 L22.842,12.088 L22.784,12.064 L22.755,12.052 L22.747,12.049 L22.744,12.048 L22.733,12.042 L22.718,12.035 C22.395,11.888 22.089,11.695 21.823,11.486 C21.557,11.276 21.332,11.050 21.154,10.841 C21.139,10.824 21.126,10.808 21.112,10.791 C21.098,10.807 21.084,10.824 21.069,10.840 C21.125,10.947 21.202,11.088 21.298,11.254 C21.353,11.349 21.415,11.448 21.480,11.556 C21.546,11.663 21.620,11.771 21.695,11.886 C21.771,12.000 21.856,12.110 21.939,12.228 C22.024,12.344 22.118,12.452 22.209,12.566 L22.244,12.609 L22.253,12.620 C22.243,12.612 22.251,12.618 22.249,12.617 L22.250,12.618 L22.253,12.621 L22.257,12.626 L22.277,12.647 L22.354,12.731 C22.405,12.787 22.456,12.843 22.507,12.899 C22.608,13.010 22.708,13.119 22.804,13.224 C22.997,13.435 23.177,13.632 23.332,13.801 C23.641,14.139 23.846,14.364 23.846,14.364 C23.846,14.364 23.587,14.204 23.198,13.962 C23.003,13.842 22.776,13.701 22.533,13.551 C22.411,13.475 22.286,13.398 22.158,13.319 C22.094,13.279 22.030,13.239 21.965,13.199 L21.868,13.139 L21.844,13.124 L21.838,13.120 L21.835,13.118 L21.833,13.117 C21.830,13.115 21.837,13.121 21.827,13.112 L21.815,13.104 L21.766,13.070 C21.637,12.977 21.501,12.888 21.377,12.792 C21.256,12.695 21.131,12.601 21.017,12.504 C20.905,12.406 20.793,12.313 20.692,12.221 C20.592,12.128 20.496,12.041 20.410,11.957 C20.371,11.919 20.334,11.883 20.299,11.848 C20.322,11.901 20.347,11.957 20.374,12.017 C20.419,12.116 20.471,12.221 20.525,12.335 C20.581,12.447 20.644,12.562 20.707,12.684 C20.772,12.805 20.845,12.923 20.917,13.048 C20.990,13.172 21.074,13.288 21.153,13.411 L21.183,13.457 L21.191,13.468 C21.182,13.460 21.189,13.467 21.188,13.465 L21.189,13.467 L21.191,13.470 L21.195,13.475 L21.212,13.498 L21.281,13.590 C21.326,13.650 21.372,13.711 21.417,13.771 C21.507,13.891 21.595,14.009 21.681,14.124 C21.853,14.353 22.013,14.566 22.150,14.749 C22.424,15.115 22.607,15.359 22.607,15.359 C22.607,15.359 22.365,15.174 22.001,14.897 C21.819,14.758 21.607,14.596 21.379,14.422 C21.265,14.336 21.148,14.246 21.029,14.155 C20.969,14.109 20.909,14.063 20.848,14.017 L20.757,13.948 L20.735,13.931 L20.729,13.926 L20.726,13.924 L20.725,13.923 C20.722,13.921 20.728,13.927 20.719,13.917 L20.708,13.908 L20.662,13.869 C20.543,13.765 20.417,13.663 20.303,13.555 C20.191,13.446 20.076,13.341 19.972,13.234 C19.870,13.125 19.768,13.022 19.677,12.920 C19.598,12.832 19.524,12.748 19.454,12.668 C19.476,12.719 19.500,12.772 19.526,12.829 C19.571,12.928 19.623,13.033 19.677,13.147 C19.733,13.259 19.796,13.374 19.859,13.496 C19.924,13.616 19.997,13.735 20.069,13.860 C20.142,13.983 20.226,14.100 20.305,14.223 L20.335,14.269 L20.343,14.280 C20.334,14.272 20.341,14.278 20.339,14.277 L20.340,14.278 L20.343,14.281 L20.347,14.287 L20.364,14.310 L20.433,14.401 C20.478,14.462 20.523,14.522 20.569,14.583 C20.659,14.703 20.747,14.821 20.833,14.935 C21.004,15.164 21.165,15.378 21.302,15.561 C21.576,15.927 21.759,16.171 21.759,16.171 C21.759,16.171 21.517,15.986 21.153,15.708 C20.971,15.569 20.758,15.408 20.531,15.234 C20.417,15.147 20.300,15.058 20.180,14.967 C20.121,14.921 20.061,14.875 20.000,14.829 L19.909,14.760 L19.887,14.742 L19.881,14.738 L19.878,14.736 L19.877,14.735 C19.874,14.732 19.880,14.739 19.871,14.729 L19.860,14.720 L19.814,14.681 C19.695,14.576 19.568,14.475 19.455,14.367 C19.343,14.258 19.228,14.152 19.124,14.045 C19.022,13.937 18.920,13.834 18.829,13.732 C18.752,13.645 18.679,13.564 18.611,13.485 C18.680,13.604 18.752,13.728 18.827,13.857 C18.905,13.990 18.983,14.131 19.070,14.264 C19.156,14.400 19.244,14.538 19.331,14.676 C19.375,14.746 19.419,14.815 19.463,14.884 L19.496,14.936 C19.513,14.961 19.520,14.973 19.533,14.992 L19.600,15.095 C19.690,15.232 19.779,15.367 19.864,15.498 C19.907,15.563 19.949,15.628 19.990,15.691 C20.030,15.756 20.069,15.819 20.107,15.881 C20.183,16.004 20.255,16.120 20.321,16.227 C20.388,16.334 20.444,16.434 20.496,16.521 C20.548,16.609 20.593,16.686 20.630,16.748 C20.702,16.875 20.744,16.948 20.744,16.948 C20.753,16.964 20.748,16.984 20.732,16.993 C20.718,17.001 20.701,16.998 20.691,16.986 L20.690,16.986 C20.690,16.986 20.634,16.924 20.537,16.816 C20.488,16.762 20.428,16.698 20.359,16.623 C20.290,16.549 20.214,16.464 20.127,16.375 C20.040,16.286 19.947,16.189 19.849,16.087 C19.800,16.036 19.749,15.984 19.698,15.930 C19.644,15.877 19.589,15.823 19.534,15.769 C19.422,15.659 19.307,15.546 19.190,15.431 L19.102,15.344 C19.088,15.332 19.069,15.312 19.061,15.305 L19.016,15.260 C18.957,15.200 18.898,15.140 18.838,15.080 C18.719,14.959 18.599,14.838 18.482,14.719 C18.392,14.630 18.311,14.541 18.230,14.453 C18.287,14.573 18.343,14.697 18.408,14.816 C18.482,14.959 18.557,15.104 18.632,15.249 C18.670,15.322 18.708,15.395 18.746,15.467 L18.774,15.522 C18.789,15.548 18.795,15.561 18.806,15.581 L18.865,15.689 C18.942,15.834 19.019,15.976 19.093,16.113 C19.130,16.182 19.166,16.250 19.202,16.316 C19.236,16.384 19.270,16.451 19.302,16.516 C19.367,16.645 19.428,16.767 19.485,16.879 C19.542,16.991 19.590,17.096 19.635,17.187 C19.679,17.279 19.717,17.359 19.748,17.425 C19.810,17.558 19.845,17.634 19.845,17.634 C19.852,17.650 19.845,17.670 19.829,17.677 C19.814,17.684 19.797,17.679 19.788,17.667 L19.788,17.667 C19.788,17.667 19.738,17.600 19.650,17.484 C19.605,17.427 19.551,17.357 19.489,17.277 C19.427,17.197 19.358,17.106 19.279,17.010 C19.201,16.914 19.116,16.809 19.027,16.699 C18.982,16.644 18.937,16.587 18.890,16.530 C18.841,16.473 18.791,16.414 18.740,16.355 C18.639,16.236 18.534,16.114 18.427,15.989 L18.346,15.895 C18.334,15.881 18.317,15.860 18.309,15.852 L18.269,15.804 C18.215,15.739 18.161,15.674 18.107,15.609 C17.998,15.478 17.889,15.347 17.783,15.219 C17.673,15.090 17.576,14.960 17.480,14.835 C17.383,14.709 17.290,14.588 17.202,14.473 C17.130,14.380 17.064,14.292 17.002,14.207 L16.967,14.227 C16.976,14.256 16.984,14.285 16.993,14.316 C17.026,14.434 17.065,14.562 17.108,14.696 C17.150,14.831 17.195,14.973 17.242,15.120 C17.288,15.267 17.334,15.421 17.390,15.570 C17.444,15.722 17.499,15.876 17.554,16.029 C17.582,16.107 17.609,16.184 17.637,16.261 L17.657,16.319 C17.669,16.347 17.673,16.360 17.681,16.381 L17.725,16.497 C17.782,16.650 17.839,16.801 17.894,16.948 C17.921,17.021 17.948,17.093 17.975,17.163 C17.999,17.235 18.024,17.306 18.047,17.374 C18.094,17.511 18.138,17.640 18.180,17.759 C18.221,17.878 18.255,17.988 18.286,18.084 C18.317,18.181 18.344,18.266 18.367,18.335 C18.410,18.475 18.434,18.555 18.434,18.555 C18.440,18.572 18.430,18.591 18.412,18.596 C18.397,18.601 18.381,18.594 18.374,18.581 L18.373,18.580 C18.373,18.580 18.333,18.508 18.261,18.381 C18.225,18.318 18.180,18.242 18.130,18.154 C18.079,18.066 18.023,17.967 17.957,17.861 C17.893,17.755 17.823,17.640 17.750,17.519 C17.713,17.459 17.675,17.396 17.636,17.333 C17.596,17.270 17.554,17.205 17.512,17.140 C17.427,17.008 17.340,16.873 17.251,16.735 L17.184,16.631 C17.173,16.616 17.159,16.592 17.152,16.584 L17.119,16.530 C17.074,16.459 17.029,16.387 16.985,16.315 C16.894,16.171 16.804,16.027 16.716,15.885 C16.624,15.743 16.547,15.601 16.467,15.464 C16.389,15.328 16.314,15.196 16.243,15.071 C16.248,15.093 16.254,15.112 16.259,15.134 C16.298,15.282 16.338,15.438 16.376,15.602 C16.414,15.765 16.455,15.932 16.489,16.107 C16.507,16.193 16.525,16.281 16.543,16.368 C16.562,16.455 16.574,16.547 16.589,16.636 C16.603,16.724 16.617,16.811 16.631,16.898 C16.644,16.985 16.657,17.071 16.670,17.156 C16.695,17.326 16.720,17.494 16.745,17.657 C16.793,17.982 16.839,18.285 16.878,18.545 C16.966,19.061 17.025,19.405 17.025,19.405 L17.025,19.406 C17.029,19.427 17.015,19.447 16.993,19.451 C16.974,19.454 16.956,19.444 16.950,19.426 C16.950,19.426 16.823,19.098 16.633,18.606 C16.544,18.358 16.439,18.070 16.327,17.761 C16.271,17.606 16.214,17.447 16.155,17.284 C16.126,17.203 16.096,17.122 16.066,17.039 C16.036,16.959 16.006,16.878 15.975,16.797 C15.945,16.717 15.918,16.639 15.885,16.560 C15.851,16.482 15.818,16.404 15.785,16.326 C15.721,16.172 15.650,16.020 15.583,15.874 C15.517,15.728 15.449,15.587 15.384,15.454 C15.325,15.331 15.268,15.217 15.213,15.109 C15.185,15.123 15.157,15.136 15.128,15.149 C15.137,15.199 15.146,15.250 15.156,15.303 C15.180,15.434 15.205,15.577 15.229,15.728 C15.253,15.879 15.280,16.038 15.302,16.205 C15.325,16.371 15.351,16.541 15.369,16.718 C15.379,16.806 15.388,16.894 15.398,16.983 C15.409,17.072 15.412,17.164 15.419,17.254 C15.425,17.343 15.431,17.431 15.437,17.519 C15.442,17.606 15.447,17.693 15.452,17.779 C15.462,17.951 15.472,18.121 15.481,18.285 C15.500,18.613 15.517,18.919 15.532,19.181 C15.573,19.703 15.600,20.051 15.600,20.051 L15.600,20.052 C15.602,20.074 15.586,20.093 15.564,20.094 C15.545,20.096 15.528,20.083 15.523,20.066 C15.523,20.066 15.427,19.727 15.283,19.220 C15.216,18.965 15.139,18.668 15.056,18.350 C15.014,18.191 14.971,18.027 14.928,17.860 C14.906,17.777 14.884,17.693 14.862,17.608 C14.839,17.525 14.817,17.441 14.794,17.358 C14.770,17.276 14.751,17.196 14.725,17.115 C14.699,17.033 14.673,16.953 14.647,16.873 C14.598,16.713 14.541,16.555 14.488,16.404 C14.435,16.252 14.380,16.105 14.328,15.967 C14.276,15.828 14.226,15.698 14.178,15.577 C14.173,15.565 14.168,15.553 14.163,15.541 C14.090,15.570 14.016,15.598 13.942,15.625 C13.962,15.742 13.984,15.867 14.007,15.999 C14.028,16.146 14.046,16.301 14.067,16.460 C14.085,16.622 14.095,16.795 14.108,16.965 C14.117,17.053 14.116,17.132 14.116,17.214 C14.117,17.295 14.117,17.377 14.118,17.459 L14.119,17.582 L14.119,17.597 L14.119,17.605 C14.118,17.596 14.121,17.619 14.120,17.617 L14.120,17.619 L14.120,17.623 L14.119,17.654 L14.116,17.717 C14.113,17.800 14.109,17.883 14.106,17.965 C14.102,18.047 14.099,18.128 14.095,18.208 C14.089,18.288 14.082,18.367 14.076,18.445 C14.063,18.601 14.053,18.750 14.033,18.892 C14.015,19.034 14.001,19.167 13.978,19.290 C13.959,19.413 13.941,19.525 13.918,19.623 C13.899,19.722 13.880,19.808 13.861,19.877 C13.827,20.017 13.799,20.094 13.799,20.094 C13.799,20.094 13.806,20.013 13.803,19.870 C13.803,19.799 13.799,19.713 13.792,19.614 C13.788,19.516 13.777,19.405 13.765,19.284 C13.755,19.164 13.734,19.033 13.715,18.896 C13.698,18.759 13.670,18.615 13.643,18.466 C13.630,18.392 13.616,18.317 13.602,18.241 C13.585,18.165 13.568,18.088 13.550,18.010 C13.533,17.933 13.516,17.856 13.499,17.778 L13.485,17.719 L13.479,17.690 L13.478,17.686 L13.478,17.684 C13.477,17.682 13.480,17.703 13.478,17.693 L13.476,17.686 L13.472,17.671 L13.440,17.553 C13.418,17.474 13.396,17.395 13.374,17.316 C13.353,17.238 13.332,17.157 13.305,17.089 C13.253,16.946 13.208,16.810 13.156,16.675 C13.103,16.547 13.054,16.424 13.004,16.308 C13.005,16.362 13.005,16.417 13.006,16.474 C13.003,16.613 12.996,16.760 12.990,16.910 C12.982,17.063 12.965,17.225 12.951,17.384 C12.946,17.467 12.932,17.540 12.920,17.616 C12.908,17.691 12.896,17.767 12.884,17.843 L12.866,17.957 L12.864,17.971 L12.863,17.978 C12.863,17.970 12.862,17.992 12.862,17.990 L12.862,17.992 L12.861,17.996 L12.855,18.024 L12.843,18.082 C12.827,18.158 12.811,18.234 12.795,18.310 C12.779,18.385 12.764,18.460 12.748,18.533 C12.730,18.607 12.712,18.679 12.694,18.750 C12.658,18.892 12.625,19.029 12.585,19.158 C12.547,19.286 12.513,19.408 12.474,19.518 C12.437,19.629 12.403,19.730 12.367,19.818 C12.334,19.906 12.303,19.982 12.275,20.044 C12.222,20.169 12.184,20.236 12.184,20.236 C12.184,20.236 12.203,20.161 12.222,20.028 C12.233,19.963 12.243,19.882 12.252,19.790 C12.263,19.698 12.269,19.593 12.277,19.480 C12.286,19.366 12.287,19.242 12.290,19.113 C12.296,18.983 12.292,18.845 12.290,18.703 C12.289,18.633 12.287,18.561 12.286,18.488 C12.282,18.415 12.278,18.341 12.274,18.267 C12.270,18.193 12.265,18.118 12.262,18.044 L12.258,17.987 L12.257,17.959 L12.257,17.956 L12.257,17.954 C12.257,17.951 12.256,17.972 12.256,17.962 L12.255,17.955 L12.254,17.941 L12.242,17.826 C12.234,17.750 12.225,17.673 12.217,17.597 C12.209,17.521 12.203,17.444 12.188,17.376 C12.162,17.236 12.141,17.102 12.113,16.970 C12.082,16.836 12.054,16.707 12.024,16.586 C11.992,16.468 11.961,16.357 11.932,16.254 C11.919,16.257 11.906,16.260 11.894,16.264 C11.895,16.301 11.897,16.337 11.896,16.376 C11.895,16.489 11.900,16.612 11.893,16.739 C11.886,16.867 11.881,17.000 11.871,17.139 C11.857,17.278 11.843,17.421 11.828,17.567 C11.812,17.709 11.787,17.844 11.766,17.985 C11.755,18.057 11.744,18.129 11.733,18.200 C11.719,18.271 11.705,18.341 11.691,18.410 C11.662,18.549 11.639,18.685 11.606,18.816 C11.573,18.947 11.542,19.073 11.512,19.193 C11.475,19.311 11.441,19.423 11.410,19.526 C11.372,19.628 11.338,19.721 11.306,19.802 C11.268,19.883 11.240,19.953 11.209,20.009 C11.178,20.065 11.154,20.108 11.132,20.138 C11.113,20.168 11.101,20.180 11.101,20.180 L11.098,20.182 C11.086,20.194 11.067,20.194 11.055,20.183 C11.045,20.173 11.044,20.158 11.050,20.146 C11.050,20.146 11.060,20.130 11.069,20.101 C11.080,20.073 11.092,20.028 11.107,19.970 C11.123,19.913 11.132,19.839 11.148,19.758 C11.157,19.675 11.168,19.581 11.179,19.478 C11.184,19.375 11.190,19.263 11.195,19.145 C11.195,19.027 11.195,18.902 11.194,18.772 C11.194,18.644 11.183,18.508 11.177,18.373 C11.174,18.306 11.170,18.237 11.167,18.169 C11.160,18.102 11.154,18.034 11.147,17.966 C11.133,17.827 11.123,17.683 11.105,17.551 C11.085,17.421 11.066,17.294 11.047,17.171 C11.026,17.048 10.999,16.929 10.977,16.817 C10.956,16.704 10.925,16.602 10.902,16.507 C10.901,16.503 10.900,16.499 10.899,16.495 C10.876,16.500 10.853,16.505 10.830,16.509 C10.814,16.614 10.800,16.727 10.776,16.842 C10.749,16.967 10.725,17.098 10.693,17.234 C10.659,17.369 10.623,17.508 10.586,17.650 C10.548,17.788 10.503,17.918 10.461,18.054 C10.439,18.123 10.418,18.193 10.396,18.262 C10.371,18.329 10.347,18.397 10.322,18.463 C10.273,18.596 10.230,18.727 10.177,18.852 C10.125,18.976 10.075,19.096 10.027,19.210 C9.973,19.321 9.922,19.426 9.875,19.524 C9.823,19.619 9.775,19.705 9.731,19.781 C9.681,19.855 9.643,19.920 9.603,19.971 C9.565,20.021 9.534,20.060 9.508,20.086 C9.485,20.113 9.471,20.123 9.471,20.123 L9.468,20.125 C9.454,20.135 9.435,20.132 9.425,20.119 C9.417,20.108 9.418,20.092 9.426,20.082 C9.426,20.082 9.438,20.067 9.451,20.040 C9.467,20.015 9.485,19.971 9.509,19.916 C9.533,19.863 9.554,19.791 9.582,19.713 C9.603,19.632 9.628,19.541 9.655,19.442 C9.675,19.340 9.698,19.231 9.721,19.115 C9.739,18.997 9.757,18.874 9.777,18.746 C9.796,18.619 9.805,18.483 9.820,18.349 C9.827,18.282 9.834,18.214 9.841,18.145 C9.845,18.078 9.849,18.010 9.852,17.942 C9.859,17.803 9.872,17.659 9.874,17.525 C9.874,17.394 9.874,17.265 9.874,17.141 C9.872,17.016 9.864,16.894 9.859,16.780 C9.858,16.751 9.855,16.723 9.853,16.695 C9.816,16.701 9.779,16.707 9.742,16.713 C9.728,16.770 9.712,16.830 9.695,16.894 C9.668,16.994 9.639,17.102 9.608,17.217 C9.579,17.335 9.538,17.442 9.500,17.560 C9.461,17.676 9.421,17.797 9.380,17.919 C9.360,17.980 9.339,18.042 9.319,18.104 L9.318,18.107 C9.318,18.105 9.314,18.122 9.315,18.116 L9.315,18.117 L9.312,18.124 L9.308,18.136 L9.298,18.161 L9.279,18.210 L9.241,18.308 C9.186,18.438 9.128,18.565 9.062,18.684 C9.031,18.744 8.997,18.802 8.962,18.859 C8.928,18.916 8.894,18.971 8.857,19.024 C8.787,19.130 8.712,19.229 8.640,19.319 C8.568,19.410 8.496,19.492 8.427,19.565 C8.154,19.858 7.937,20.009 7.937,20.009 C7.937,20.009 7.937,20.009 7.937,20.009 C7.937,20.009 8.107,19.806 8.288,19.465 C8.333,19.380 8.380,19.287 8.423,19.187 C8.467,19.087 8.510,18.980 8.547,18.869 C8.567,18.813 8.585,18.756 8.601,18.698 C8.618,18.641 8.634,18.583 8.647,18.523 C8.677,18.405 8.696,18.283 8.713,18.163 L8.723,18.073 L8.728,18.028 L8.730,18.006 L8.731,17.995 L8.732,17.989 L8.732,17.988 C8.733,17.980 8.730,17.996 8.731,17.994 L8.731,17.991 C8.735,17.926 8.739,17.861 8.742,17.797 C8.750,17.668 8.758,17.541 8.765,17.419 C8.771,17.297 8.783,17.175 8.780,17.070 C8.780,16.992 8.780,16.919 8.780,16.848 C8.618,16.867 8.457,16.884 8.298,16.900 C8.291,16.926 8.284,16.952 8.276,16.980 C8.252,17.069 8.226,17.165 8.199,17.267 C8.173,17.371 8.137,17.466 8.104,17.571 C8.069,17.674 8.033,17.780 7.997,17.889 C7.979,17.943 7.961,17.998 7.942,18.053 L7.942,18.055 C7.942,18.054 7.939,18.069 7.940,18.064 L7.939,18.065 L7.937,18.070 L7.933,18.081 L7.925,18.103 L7.907,18.147 L7.874,18.234 C7.825,18.349 7.774,18.462 7.715,18.567 C7.688,18.621 7.657,18.672 7.626,18.722 C7.597,18.773 7.566,18.822 7.533,18.869 C7.471,18.963 7.405,19.050 7.341,19.130 C7.277,19.211 7.213,19.283 7.152,19.348 C6.910,19.609 6.718,19.742 6.718,19.742 C6.718,19.742 6.718,19.742 6.718,19.742 C6.718,19.742 6.868,19.563 7.029,19.260 C7.069,19.185 7.110,19.102 7.149,19.013 C7.188,18.925 7.226,18.830 7.258,18.731 C7.276,18.682 7.292,18.632 7.306,18.580 C7.321,18.529 7.336,18.477 7.347,18.424 C7.373,18.320 7.391,18.212 7.406,18.106 L7.414,18.025 L7.419,17.986 L7.421,17.966 L7.422,17.956 L7.422,17.951 L7.422,17.950 C7.424,17.943 7.421,17.958 7.421,17.956 L7.421,17.953 C7.425,17.895 7.428,17.837 7.432,17.780 C7.439,17.666 7.445,17.554 7.452,17.446 C7.457,17.338 7.468,17.229 7.465,17.137 C7.465,17.079 7.465,17.024 7.465,16.971 C7.420,16.974 7.376,16.977 7.332,16.980 C7.328,16.990 7.324,16.999 7.321,17.009 C7.256,17.173 7.182,17.365 7.102,17.571 C7.082,17.622 7.061,17.674 7.041,17.727 C7.018,17.783 6.994,17.840 6.971,17.897 C6.926,18.012 6.866,18.123 6.812,18.235 C6.751,18.344 6.691,18.453 6.623,18.554 C6.591,18.606 6.557,18.656 6.522,18.704 C6.487,18.752 6.455,18.800 6.418,18.845 C6.348,18.936 6.276,19.020 6.206,19.098 C6.135,19.174 6.067,19.245 6.000,19.307 C5.738,19.557 5.531,19.681 5.531,19.681 C5.516,19.690 5.496,19.686 5.487,19.671 C5.479,19.658 5.481,19.641 5.492,19.631 C5.492,19.631 5.532,19.591 5.598,19.514 C5.631,19.475 5.670,19.428 5.712,19.371 C5.755,19.316 5.800,19.251 5.847,19.179 C5.895,19.107 5.942,19.027 5.990,18.942 C6.037,18.856 6.084,18.765 6.127,18.668 C6.151,18.621 6.169,18.570 6.190,18.521 C6.212,18.471 6.231,18.420 6.248,18.367 C6.287,18.265 6.316,18.157 6.347,18.051 C6.370,17.943 6.399,17.837 6.414,17.730 C6.422,17.676 6.431,17.623 6.439,17.571 C6.447,17.515 6.455,17.459 6.462,17.405 C6.473,17.331 6.483,17.260 6.492,17.190 C6.477,17.226 6.460,17.256 6.442,17.290 C6.423,17.328 6.402,17.363 6.380,17.399 C6.337,17.473 6.287,17.543 6.235,17.618 C6.182,17.690 6.127,17.767 6.067,17.841 C6.009,17.916 5.946,17.992 5.882,18.068 C5.818,18.146 5.755,18.214 5.690,18.289 L5.666,18.316 L5.660,18.323 L5.659,18.325 C5.655,18.330 5.657,18.327 5.656,18.329 L5.652,18.333 L5.637,18.348 L5.579,18.408 L5.522,18.467 L5.466,18.518 C5.391,18.585 5.318,18.648 5.246,18.706 C5.103,18.824 4.968,18.928 4.852,19.017 C4.620,19.195 4.463,19.309 4.463,19.309 C4.449,19.319 4.430,19.316 4.420,19.303 C4.412,19.292 4.412,19.277 4.419,19.267 C4.419,19.267 4.531,19.108 4.691,18.867 C4.771,18.746 4.863,18.605 4.956,18.453 C5.004,18.377 5.050,18.299 5.094,18.220 L5.127,18.160 L5.153,18.104 L5.179,18.048 L5.186,18.034 L5.187,18.031 C5.187,18.031 5.189,18.027 5.186,18.032 L5.187,18.030 L5.191,18.021 L5.205,17.988 C5.240,17.899 5.281,17.807 5.312,17.722 C5.344,17.637 5.376,17.554 5.404,17.472 C5.433,17.390 5.457,17.312 5.480,17.239 C5.499,17.169 5.519,17.102 5.529,17.044 C5.502,17.044 5.475,17.045 5.447,17.045 C5.435,17.064 5.421,17.082 5.408,17.101 C5.360,17.172 5.306,17.239 5.249,17.310 C5.191,17.379 5.131,17.451 5.066,17.521 C5.003,17.592 4.935,17.664 4.866,17.736 C4.797,17.809 4.729,17.873 4.660,17.943 L4.634,17.968 L4.627,17.975 L4.626,17.976 C4.622,17.981 4.624,17.979 4.622,17.980 L4.618,17.984 L4.603,17.998 L4.541,18.054 L4.479,18.109 L4.420,18.156 C4.341,18.218 4.263,18.276 4.188,18.329 C4.037,18.437 3.896,18.532 3.774,18.613 C3.530,18.775 3.366,18.878 3.366,18.878 C3.352,18.887 3.332,18.883 3.323,18.869 C3.316,18.857 3.317,18.843 3.325,18.832 C3.325,18.832 3.447,18.682 3.623,18.452 C3.711,18.337 3.813,18.203 3.916,18.057 C3.969,17.985 4.020,17.910 4.069,17.833 L4.106,17.777 L4.136,17.722 L4.166,17.668 L4.173,17.655 L4.175,17.652 C4.174,17.652 4.177,17.648 4.174,17.652 L4.175,17.650 L4.179,17.642 L4.195,17.609 C4.237,17.523 4.284,17.434 4.321,17.352 C4.359,17.269 4.396,17.189 4.429,17.108 C4.439,17.085 4.448,17.063 4.457,17.041 C4.198,17.038 3.946,17.034 3.702,17.031 C2.876,17.363 2.162,17.836 1.545,18.516 C0.710,19.437 0.271,19.042 0.271,19.042 L0.271,19.042 C0.236,19.041 0.200,19.031 0.168,19.010 C0.086,18.957 0.056,18.855 0.091,18.768 C0.091,18.768 0.104,18.735 0.130,18.670 C0.156,18.607 0.195,18.514 0.253,18.396 C0.370,18.162 0.545,17.818 0.849,17.419 C1.002,17.221 1.185,17.006 1.421,16.796 C1.655,16.585 1.949,16.382 2.316,16.234 C2.362,16.217 2.410,16.200 2.457,16.183 C2.505,16.167 2.556,16.154 2.606,16.140 L2.624,16.135 L2.634,16.133 C2.646,16.130 2.620,16.134 2.664,16.127 L2.695,16.120 L2.758,16.108 C2.800,16.100 2.842,16.092 2.885,16.083 C2.929,16.075 2.969,16.065 3.017,16.059 C3.065,16.053 3.113,16.046 3.162,16.040 C3.259,16.027 3.358,16.014 3.458,16.001 C3.644,15.982 3.834,15.963 4.029,15.943 C4.221,15.925 4.418,15.906 4.619,15.887 C5.418,15.814 6.272,15.724 7.166,15.593 C8.060,15.462 8.994,15.299 9.941,15.063 C10.060,15.034 10.179,15.006 10.298,14.977 C10.417,14.944 10.535,14.912 10.655,14.879 C10.774,14.846 10.893,14.813 11.013,14.780 C11.133,14.747 11.254,14.717 11.372,14.676 C11.610,14.599 11.849,14.522 12.089,14.445 L12.270,14.387 L12.448,14.321 C12.566,14.277 12.685,14.232 12.804,14.188 C13.285,14.022 13.748,13.804 14.222,13.608 C14.342,13.562 14.454,13.498 14.570,13.443 L14.916,13.273 L15.261,13.103 L15.348,13.061 L15.359,13.055 L15.378,13.045 L15.422,13.021 L15.599,12.925 L15.777,12.829 C15.836,12.797 15.896,12.765 15.947,12.734 L16.269,12.547 C16.376,12.488 16.484,12.417 16.592,12.351 C16.700,12.283 16.810,12.220 16.916,12.149 C17.345,11.876 17.760,11.585 18.168,11.288 C18.571,10.985 18.965,10.674 19.347,10.356 C19.726,10.034 20.090,9.702 20.442,9.366 C21.138,8.688 21.775,7.986 22.324,7.274 C22.600,6.919 22.855,6.563 23.086,6.210 C23.319,5.855 23.528,5.509 23.705,5.165 C23.745,5.088 23.786,4.998 23.824,4.915 C23.861,4.828 23.898,4.742 23.935,4.658 C23.999,4.484 24.069,4.316 24.124,4.145 C24.153,4.061 24.181,3.977 24.210,3.895 C24.238,3.813 24.260,3.729 24.285,3.648 C24.334,3.485 24.384,3.327 24.420,3.170 C24.460,3.017 24.498,2.868 24.535,2.724 C24.566,2.574 24.595,2.429 24.624,2.290 C24.656,2.150 24.674,2.021 24.692,1.896 C24.709,1.771 24.734,1.652 24.743,1.537 C24.798,1.076 24.799,0.710 24.791,0.459 C24.779,0.209 24.756,0.076 24.756,0.076 C24.756,0.076 24.806,0.201 24.867,0.449 C24.919,0.697 24.986,1.067 25.011,1.545 C25.020,1.665 25.014,1.792 25.017,1.925 C25.018,2.059 25.020,2.201 25.009,2.341 C25.000,2.482 24.992,2.629 24.982,2.782 C24.965,2.939 24.947,3.101 24.928,3.269 C24.911,3.435 24.880,3.604 24.852,3.780 C24.836,3.868 24.824,3.957 24.806,4.047 C24.787,4.137 24.768,4.228 24.749,4.320 C24.717,4.462 24.684,4.604 24.646,4.749 C24.652,4.744 24.659,4.741 24.666,4.736 C24.711,4.706 24.756,4.674 24.802,4.640 C24.848,4.607 24.895,4.573 24.940,4.535 C25.033,4.463 25.124,4.383 25.215,4.299 C25.258,4.255 25.304,4.212 25.347,4.167 L25.472,4.028 L25.587,3.880 C25.626,3.831 25.655,3.777 25.690,3.726 L25.716,3.687 L25.727,3.670 L25.738,3.649 C25.754,3.621 25.769,3.593 25.785,3.565 C25.815,3.509 25.846,3.454 25.875,3.400 C25.935,3.292 25.993,3.188 26.047,3.089 C26.104,2.991 26.145,2.895 26.189,2.807 C26.232,2.719 26.271,2.638 26.306,2.566 C26.338,2.493 26.363,2.428 26.385,2.375 C26.407,2.322 26.425,2.280 26.433,2.251 C26.443,2.222 26.448,2.206 26.448,2.206 C26.448,2.206 26.446,2.222 26.440,2.253 C26.436,2.283 26.424,2.327 26.410,2.383 C26.396,2.439 26.381,2.507 26.359,2.585 C26.335,2.662 26.308,2.749 26.278,2.843 C26.247,2.938 26.219,3.044 26.177,3.148 C26.137,3.254 26.095,3.366 26.052,3.481 C26.031,3.539 26.009,3.597 25.986,3.657 C25.975,3.687 25.964,3.717 25.953,3.747 L25.945,3.769 L25.933,3.795 L25.912,3.841 C25.883,3.902 25.858,3.967 25.824,4.026 C25.790,4.086 25.757,4.147 25.722,4.206 C25.684,4.264 25.646,4.321 25.608,4.379 C25.568,4.435 25.526,4.488 25.485,4.543 C25.401,4.649 25.315,4.751 25.225,4.844 C25.182,4.892 25.137,4.936 25.092,4.979 C25.048,5.023 25.004,5.066 24.960,5.105 C24.873,5.185 24.788,5.257 24.708,5.323 C24.628,5.388 24.553,5.446 24.485,5.495 C24.447,5.523 24.412,5.548 24.379,5.571 C24.353,5.638 24.326,5.704 24.298,5.771 C24.313,5.768 24.328,5.765 24.344,5.762 C24.435,5.739 24.534,5.710 24.640,5.681 C24.746,5.645 24.857,5.607 24.973,5.568 L25.017,5.553 L25.028,5.549 L25.030,5.548 L25.032,5.547 C25.041,5.543 25.021,5.553 25.023,5.552 L25.029,5.550 L25.051,5.540 C25.080,5.527 25.110,5.515 25.140,5.502 C25.170,5.489 25.200,5.476 25.230,5.463 C25.258,5.450 25.282,5.436 25.308,5.422 C25.412,5.372 25.521,5.301 25.629,5.232 C25.681,5.194 25.734,5.156 25.786,5.118 C25.838,5.080 25.887,5.038 25.938,4.998 C25.989,4.958 26.036,4.914 26.083,4.873 C26.131,4.831 26.178,4.789 26.222,4.745 C26.313,4.661 26.396,4.574 26.476,4.492 C26.553,4.407 26.627,4.328 26.692,4.251 C26.954,3.948 27.106,3.724 27.106,3.724 C27.106,3.724 26.992,3.969 26.780,4.316 C26.728,4.403 26.667,4.495 26.603,4.593 C26.536,4.689 26.466,4.791 26.388,4.893 C26.350,4.945 26.309,4.996 26.267,5.047 C26.225,5.098 26.183,5.151 26.137,5.201 C26.091,5.252 26.047,5.304 25.998,5.354 C25.949,5.404 25.900,5.453 25.850,5.503 C25.746,5.597 25.643,5.692 25.520,5.779 C25.491,5.801 25.461,5.824 25.432,5.844 C25.404,5.862 25.377,5.879 25.349,5.897 C25.322,5.914 25.295,5.932 25.268,5.949 L25.248,5.962 L25.243,5.965 L25.228,5.973 L25.217,5.979 L25.173,6.002 C25.058,6.064 24.947,6.123 24.842,6.179 C24.731,6.230 24.627,6.280 24.528,6.323 C24.422,6.361 24.333,6.401 24.239,6.426 C24.192,6.439 24.148,6.450 24.108,6.461 C24.068,6.472 24.020,6.476 23.982,6.483 C23.978,6.483 23.975,6.483 23.972,6.484 C23.926,6.577 23.879,6.670 23.831,6.764 C23.857,6.768 23.884,6.773 23.914,6.778 C23.980,6.791 24.068,6.791 24.157,6.800 C24.251,6.802 24.355,6.800 24.465,6.801 C24.577,6.794 24.694,6.787 24.816,6.780 L24.862,6.777 L24.874,6.777 L24.877,6.776 L24.878,6.776 C24.888,6.774 24.866,6.779 24.869,6.778 L24.875,6.778 L24.899,6.774 C24.930,6.770 24.962,6.765 24.995,6.761 C25.027,6.757 25.059,6.752 25.092,6.748 C25.122,6.742 25.149,6.735 25.178,6.729 C25.292,6.708 25.415,6.669 25.538,6.631 C25.599,6.608 25.659,6.586 25.720,6.563 C25.780,6.540 25.839,6.512 25.898,6.487 C25.958,6.463 26.015,6.433 26.072,6.406 C26.129,6.378 26.186,6.350 26.240,6.320 C26.350,6.263 26.453,6.201 26.552,6.143 C26.649,6.082 26.741,6.025 26.824,5.969 C27.158,5.746 27.364,5.571 27.364,5.571 C27.364,5.571 27.189,5.776 26.892,6.054 C26.818,6.124 26.735,6.197 26.647,6.274 C26.557,6.349 26.463,6.429 26.360,6.506 C26.310,6.546 26.257,6.584 26.202,6.622 C26.148,6.660 26.094,6.701 26.036,6.737 C25.978,6.773 25.921,6.812 25.861,6.847 C25.801,6.882 25.740,6.916 25.679,6.951 C25.553,7.014 25.428,7.078 25.287,7.130 C25.253,7.143 25.218,7.157 25.185,7.169 C25.153,7.178 25.122,7.188 25.091,7.198 C25.060,7.207 25.029,7.217 24.999,7.226 L24.976,7.233 L24.970,7.235 L24.953,7.239 L24.941,7.241 L24.893,7.252 C24.766,7.281 24.643,7.309 24.526,7.335 C24.406,7.354 24.292,7.375 24.185,7.390 C24.074,7.398 23.976,7.413 23.879,7.412 C23.831,7.412 23.785,7.411 23.743,7.411 C23.702,7.411 23.655,7.402 23.617,7.398 C23.597,7.396 23.578,7.393 23.561,7.390 C23.544,7.388 23.522,7.381 23.505,7.376 C23.547,7.402 23.597,7.431 23.659,7.462 C23.726,7.497 23.807,7.533 23.897,7.567 C23.987,7.603 24.089,7.635 24.198,7.665 C24.308,7.692 24.427,7.719 24.552,7.736 C24.615,7.745 24.679,7.755 24.744,7.759 C24.777,7.762 24.810,7.765 24.843,7.768 L24.856,7.769 L24.859,7.769 C24.857,7.769 24.866,7.769 24.855,7.769 L24.857,7.769 L24.864,7.770 L24.891,7.771 L24.946,7.772 C25.022,7.775 25.086,7.774 25.153,7.775 C25.221,7.774 25.292,7.772 25.362,7.767 C25.640,7.750 25.919,7.704 26.173,7.628 C26.427,7.553 26.656,7.450 26.842,7.341 C27.028,7.232 27.171,7.119 27.265,7.033 C27.359,6.946 27.404,6.889 27.404,6.889 C27.410,6.881 27.421,6.880 27.429,6.886 C27.436,6.891 27.438,6.901 27.434,6.908 C27.434,6.908 27.400,6.977 27.323,7.084 ZM5.706,17.191 C5.706,17.191 5.706,17.192 5.706,17.192 C5.708,17.193 5.708,17.193 5.710,17.194 C5.708,17.193 5.707,17.192 5.706,17.191 ZM21.040,1.385 L21.031,1.384 C21.031,1.384 20.942,1.374 20.776,1.354 C20.608,1.334 20.359,1.312 20.042,1.286 C19.725,1.261 19.339,1.241 18.898,1.223 C18.456,1.206 17.957,1.202 17.414,1.207 C16.872,1.215 16.285,1.244 15.667,1.289 C15.049,1.335 14.401,1.418 13.736,1.518 C13.071,1.622 12.392,1.764 11.712,1.942 C11.542,1.989 11.371,2.031 11.202,2.082 C11.033,2.134 10.863,2.183 10.694,2.238 C10.526,2.294 10.358,2.351 10.189,2.407 L9.698,2.589 L9.188,2.797 L9.156,2.810 L9.135,2.820 L9.075,2.846 L8.954,2.899 C8.874,2.933 8.795,2.973 8.716,3.009 C8.400,3.160 8.092,3.322 7.793,3.495 C7.197,3.844 6.637,4.232 6.132,4.655 C5.878,4.866 5.640,5.086 5.412,5.308 C5.184,5.529 4.969,5.755 4.769,5.983 C4.568,6.211 4.382,6.441 4.208,6.669 C4.033,6.895 3.871,7.121 3.722,7.342 C3.573,7.563 3.437,7.781 3.313,7.991 C3.187,8.200 3.074,8.402 2.972,8.594 C2.770,8.981 2.607,9.326 2.484,9.614 C2.362,9.903 2.273,10.133 2.218,10.291 C2.191,10.370 2.171,10.430 2.157,10.471 C2.144,10.509 2.138,10.529 2.138,10.529 L2.135,10.539 C2.098,10.654 1.974,10.718 1.859,10.681 C1.754,10.648 1.692,10.544 1.708,10.440 C1.708,10.440 1.712,10.415 1.719,10.367 C1.727,10.321 1.738,10.253 1.755,10.166 C1.791,9.991 1.846,9.737 1.940,9.421 C2.032,9.104 2.157,8.723 2.333,8.298 C2.420,8.085 2.518,7.860 2.629,7.626 C2.742,7.393 2.868,7.152 3.008,6.904 C3.148,6.657 3.303,6.403 3.472,6.146 C3.643,5.890 3.830,5.632 4.033,5.374 C4.236,5.116 4.454,4.858 4.689,4.605 C4.925,4.352 5.179,4.106 5.447,3.866 C5.983,3.387 6.580,2.936 7.229,2.547 C7.553,2.351 7.889,2.169 8.234,2.004 C8.320,1.963 8.406,1.920 8.493,1.882 L8.625,1.823 L8.690,1.794 L8.732,1.776 L8.764,1.763 L9.275,1.555 L9.819,1.356 C9.999,1.297 10.179,1.237 10.359,1.178 C10.539,1.123 10.721,1.074 10.902,1.021 C11.082,0.970 11.265,0.928 11.445,0.881 C12.170,0.708 12.892,0.586 13.593,0.498 C14.294,0.408 14.975,0.371 15.619,0.353 C16.264,0.334 16.873,0.354 17.433,0.387 C17.994,0.418 18.505,0.474 18.956,0.533 C19.408,0.590 19.798,0.660 20.119,0.721 C20.440,0.782 20.690,0.844 20.861,0.885 C20.947,0.906 21.012,0.924 21.056,0.936 C21.102,0.949 21.125,0.956 21.125,0.956 C21.242,0.989 21.310,1.110 21.277,1.227 C21.247,1.332 21.145,1.398 21.040,1.385 Z"/>
</svg>