<svg 
 xmlns="http://www.w3.org/2000/svg"
 xmlns:xlink="http://www.w3.org/1999/xlink"
 width="23px" height="29px">
<path fill-rule="evenodd"  fill="rgb(255, 255, 255)"
 d="M22.099,10.712 L22.730,10.027 C23.130,9.595 23.097,8.920 22.658,8.526 L21.272,7.280 C20.833,6.885 20.150,6.918 19.751,7.350 L19.121,8.035 L13.026,14.268 C12.639,14.689 12.656,15.335 13.064,15.735 L19.159,21.684 C19.579,22.097 20.263,22.095 20.681,21.679 L22.000,20.369 C22.418,19.955 22.416,19.279 21.996,18.867 L18.630,15.599 C18.222,15.198 18.206,14.552 18.592,14.131 L22.099,10.712 ZM15.440,3.713 L16.071,3.027 C16.470,2.594 16.437,1.920 15.999,1.526 L14.613,0.280 C14.174,-0.114 13.491,-0.083 13.092,0.351 L12.461,1.035 L0.293,14.268 C-0.094,14.689 -0.078,15.335 0.331,15.735 L13.513,28.683 C13.932,29.096 14.616,29.095 15.034,28.680 L16.353,27.370 C16.771,26.954 16.769,26.280 16.350,25.867 L5.896,15.599 C5.489,15.198 5.472,14.552 5.858,14.131 L15.440,3.713 Z"/>
</svg>