<svg 
 xmlns="http://www.w3.org/2000/svg"
 xmlns:xlink="http://www.w3.org/1999/xlink"
 width="43px" height="43px">
<path fill-rule="evenodd"  fill="rgb(100, 100, 100)"
 d="M21.312,0.274 C9.717,0.274 0.283,9.663 0.283,21.204 C0.283,32.743 9.717,42.132 21.312,42.132 C32.906,42.132 42.341,32.743 42.341,21.204 C42.341,9.663 32.906,0.274 21.312,0.274 ZM26.080,15.070 L25.295,14.936 C24.789,14.850 24.309,14.806 23.867,14.806 C23.072,14.806 22.799,14.991 22.719,15.070 C22.675,15.114 22.454,15.379 22.454,16.353 L22.454,16.941 L25.509,16.941 L25.509,20.514 L22.454,20.514 L22.454,31.521 L18.212,31.521 L18.212,20.514 L15.866,20.514 L15.866,16.941 L18.212,16.941 L18.212,16.142 C18.212,15.028 18.320,14.201 18.543,13.615 C18.863,12.791 19.424,12.121 20.212,11.620 C21.438,10.841 23.458,10.676 25.978,11.148 L26.757,11.295 L26.080,15.070 Z"/>
</svg>