<svg 
 xmlns="http://www.w3.org/2000/svg"
 xmlns:xlink="http://www.w3.org/1999/xlink"
 width="17px" height="24px">
<path fill-rule="evenodd"  fill="rgb(23, 23, 23)"
 d="M15.674,11.156 C14.959,13.007 13.618,15.330 11.688,18.057 C10.278,20.051 9.053,21.541 9.002,21.604 C8.890,21.739 8.727,21.815 8.553,21.815 C8.552,21.815 8.552,21.815 8.552,21.815 C8.377,21.815 8.213,21.738 8.102,21.603 C8.050,21.538 6.823,20.033 5.432,18.053 C3.515,15.323 2.182,12.998 1.471,11.140 C1.045,10.164 0.829,9.120 0.831,8.042 C0.833,6.997 1.039,5.984 1.444,5.030 C1.836,4.108 2.395,3.281 3.107,2.571 C3.818,1.861 4.647,1.304 5.570,0.916 C6.522,0.515 7.532,0.312 8.572,0.312 C8.577,0.312 8.581,0.312 8.586,0.312 C9.631,0.313 10.645,0.520 11.600,0.925 C12.522,1.317 13.350,1.877 14.060,2.589 C14.770,3.301 15.327,4.130 15.716,5.053 C16.119,6.008 16.322,7.023 16.320,8.067 C16.319,9.141 16.101,10.180 15.674,11.156 ZM8.584,1.475 C8.580,1.475 8.576,1.475 8.573,1.475 C6.823,1.475 5.175,2.157 3.931,3.397 C2.686,4.639 1.998,6.289 1.995,8.044 C1.994,8.964 2.178,9.854 2.543,10.690 C2.547,10.698 2.550,10.706 2.554,10.715 C3.220,12.458 4.544,14.762 6.381,17.379 C7.274,18.651 8.095,19.719 8.554,20.303 C9.016,19.719 9.843,18.652 10.742,17.380 C12.591,14.766 13.922,12.464 14.593,10.723 C14.596,10.715 14.600,10.706 14.604,10.698 C14.969,9.867 15.155,8.981 15.157,8.065 C15.163,4.437 12.214,1.481 8.584,1.475 ZM8.573,12.580 C8.571,12.580 8.568,12.580 8.566,12.580 C7.358,12.578 6.223,12.105 5.371,11.250 C4.518,10.394 4.049,9.256 4.051,8.047 C4.053,6.838 4.525,5.703 5.381,4.849 C6.234,3.998 7.368,3.530 8.573,3.530 C8.575,3.530 8.578,3.530 8.580,3.530 C9.789,3.532 10.925,4.005 11.779,4.861 C12.633,5.717 13.102,6.854 13.101,8.062 C13.096,10.555 11.066,12.580 8.573,12.580 ZM10.955,5.682 C10.320,5.046 9.476,4.695 8.579,4.693 C8.577,4.693 8.575,4.693 8.573,4.693 C7.678,4.693 6.837,5.041 6.203,5.673 C5.567,6.307 5.217,7.151 5.215,8.049 C5.214,8.948 5.562,9.793 6.195,10.429 C6.828,11.064 7.671,11.415 8.567,11.416 C8.569,11.416 8.571,11.416 8.573,11.416 C10.425,11.417 11.933,9.912 11.937,8.060 C11.938,7.163 11.589,6.318 10.955,5.682 ZM1.739,18.611 C2.228,18.165 2.903,17.781 3.747,17.471 C3.892,17.418 4.051,17.424 4.192,17.489 C4.333,17.554 4.440,17.670 4.494,17.816 C4.547,17.962 4.541,18.120 4.476,18.261 C4.411,18.402 4.294,18.509 4.148,18.563 C2.849,19.041 2.041,19.723 2.040,20.343 C2.039,20.907 2.668,21.503 3.765,21.979 C5.033,22.529 6.733,22.833 8.551,22.836 C8.560,22.836 8.570,22.836 8.579,22.836 C10.387,22.836 12.077,22.538 13.341,21.994 C14.440,21.522 15.070,20.928 15.071,20.365 C15.072,19.744 14.267,19.059 12.968,18.577 C12.668,18.466 12.514,18.130 12.626,17.830 C12.680,17.684 12.787,17.568 12.929,17.503 C13.070,17.439 13.228,17.433 13.374,17.487 C14.217,17.800 14.891,18.186 15.377,18.633 C15.940,19.151 16.236,19.750 16.235,20.367 C16.233,21.432 15.369,22.389 13.801,23.063 C12.395,23.667 10.541,24.000 8.578,24.000 C8.569,24.000 8.559,24.000 8.549,24.000 C6.576,23.996 4.712,23.658 3.301,23.046 C1.735,22.367 0.874,21.406 0.876,20.341 C0.877,19.725 1.175,19.126 1.739,18.611 Z"/>
</svg>