<svg 
 xmlns="http://www.w3.org/2000/svg"
 xmlns:xlink="http://www.w3.org/1999/xlink"
 width="43px" height="43px">
<path fill-rule="evenodd"  fill="rgb(100, 100, 100)"
 d="M21.840,42.132 C10.246,42.132 0.811,32.743 0.811,21.204 C0.811,9.663 10.246,0.274 21.840,0.274 C33.436,0.274 42.869,9.663 42.869,21.204 C42.869,32.743 33.436,42.132 21.840,42.132 ZM32.050,17.023 C32.050,15.460 30.777,14.192 29.207,14.192 L15.402,14.192 C13.832,14.192 12.559,15.460 12.559,17.023 L12.559,25.383 C12.559,26.946 13.832,28.213 15.402,28.213 L29.207,28.213 C30.777,28.213 32.050,26.946 32.050,25.383 L32.050,17.023 ZM26.846,22.262 L20.687,25.555 C20.529,25.622 20.394,25.648 20.259,25.648 C19.886,25.648 19.544,25.451 19.366,25.132 C19.284,24.987 19.241,24.822 19.241,24.656 L19.244,24.280 L19.241,20.662 L19.244,18.118 L19.241,17.747 C19.241,17.580 19.284,17.415 19.366,17.270 C19.610,16.834 20.182,16.635 20.660,16.835 C20.660,16.835 26.132,19.765 26.762,20.101 C26.902,20.175 27.423,20.462 27.541,20.627 C27.660,20.793 27.722,20.987 27.722,21.189 L27.722,21.237 C27.716,21.430 27.655,21.616 27.541,21.775 C27.424,21.941 26.846,22.262 26.846,22.262 Z"/>
</svg>