<svg 
 xmlns="http://www.w3.org/2000/svg"
 xmlns:xlink="http://www.w3.org/1999/xlink"
 width="24px" height="30px">
<path fill-rule="evenodd"  fill="rgb(255, 255, 255)"
 d="M1.703,11.212 L1.080,10.528 C0.686,10.095 0.717,9.420 1.149,9.026 L2.520,7.779 C2.953,7.386 3.628,7.418 4.022,7.850 L4.644,8.535 L10.664,14.768 C11.046,15.189 11.030,15.835 10.627,16.235 L4.607,22.184 C4.192,22.596 3.517,22.595 3.104,22.179 L1.800,20.870 C1.387,20.455 1.390,19.779 1.804,19.367 L5.129,16.098 C5.532,15.698 5.548,15.052 5.167,14.631 L1.703,11.212 ZM8.281,4.213 L7.657,3.527 C7.263,3.095 7.295,2.421 7.728,2.027 L9.098,0.779 C9.530,0.385 10.205,0.417 10.599,0.850 L11.222,1.535 L23.242,14.768 C23.624,15.189 23.607,15.835 23.204,16.235 L10.185,29.184 C9.769,29.597 9.094,29.594 8.681,29.180 L7.378,27.869 C6.965,27.454 6.967,26.779 7.382,26.366 L17.707,16.098 C18.110,15.698 18.126,15.052 17.744,14.631 L8.281,4.213 Z"/>
</svg>