<svg 
 xmlns="http://www.w3.org/2000/svg"
 xmlns:xlink="http://www.w3.org/1999/xlink"
 width="35px" height="20px">
<path fill-rule="evenodd"  fill="rgb(23, 23, 23)"
 d="M34.584,2.104 L34.581,2.103 C34.581,2.103 34.445,2.085 34.189,2.050 C33.932,2.018 33.555,1.973 33.074,1.925 C32.114,1.829 30.737,1.717 29.089,1.685 C28.265,1.670 27.374,1.675 26.438,1.722 C25.501,1.768 24.519,1.855 23.524,2.015 C23.027,2.095 22.528,2.194 22.034,2.319 C21.788,2.380 21.540,2.451 21.302,2.525 L21.126,2.582 L20.933,2.647 C20.811,2.690 20.689,2.733 20.567,2.776 C19.570,3.134 18.569,3.556 17.579,4.009 C15.600,4.916 13.663,5.943 11.876,6.954 C10.089,7.966 8.451,8.966 7.074,9.851 C6.386,10.294 5.764,10.708 5.222,11.081 C4.680,11.454 2.675,13.505 1.713,13.481 C0.751,13.457 -0.009,12.652 0.015,11.683 C0.016,11.633 0.020,11.580 0.025,11.532 C0.025,11.532 0.026,11.530 0.026,11.525 C0.026,11.520 0.027,11.515 0.027,11.510 C0.029,11.487 0.032,11.464 0.034,11.439 C0.040,11.390 0.048,11.335 0.060,11.277 C0.063,11.263 0.066,11.248 0.070,11.233 C0.072,11.222 0.075,11.211 0.078,11.200 C0.082,11.185 0.086,11.169 0.091,11.153 C0.100,11.120 0.111,11.085 0.123,11.049 C0.164,10.929 0.221,10.812 0.270,10.726 C0.320,10.640 0.369,10.568 0.415,10.508 C0.504,10.391 0.584,10.307 0.659,10.234 C0.735,10.160 0.807,10.097 0.882,10.035 C1.031,9.912 1.190,9.795 1.369,9.670 C1.548,9.546 1.747,9.416 1.967,9.277 C2.407,8.999 2.932,8.687 3.536,8.344 C4.141,8.001 4.823,7.628 5.571,7.234 C7.068,6.446 8.827,5.572 10.743,4.697 C12.658,3.824 14.727,2.948 16.853,2.189 C17.916,1.811 18.993,1.462 20.079,1.176 L20.283,1.123 L20.385,1.097 L20.444,1.082 L20.494,1.071 L20.692,1.025 L20.909,0.980 C21.194,0.922 21.470,0.873 21.748,0.834 C22.302,0.754 22.848,0.703 23.382,0.673 C24.451,0.612 25.475,0.628 26.440,0.679 C27.405,0.731 28.311,0.820 29.143,0.921 C30.806,1.125 32.174,1.380 33.127,1.575 C33.604,1.673 33.976,1.757 34.230,1.816 C34.484,1.877 34.619,1.910 34.619,1.910 C34.672,1.922 34.705,1.976 34.692,2.029 C34.680,2.078 34.633,2.110 34.584,2.104 ZM9.947,19.205 C9.979,19.050 10.027,18.824 10.109,18.543 C10.191,18.262 10.301,17.923 10.456,17.545 C10.532,17.356 10.619,17.156 10.717,16.948 C10.816,16.741 10.927,16.527 11.051,16.307 C11.174,16.087 11.310,15.861 11.459,15.633 C11.610,15.406 11.775,15.177 11.953,14.947 C12.132,14.718 12.324,14.489 12.531,14.264 C12.738,14.040 12.962,13.821 13.198,13.608 C13.670,13.182 14.196,12.781 14.768,12.436 C15.053,12.261 15.349,12.100 15.652,11.953 C15.729,11.917 15.804,11.879 15.881,11.845 L15.997,11.793 L16.055,11.767 L16.092,11.751 L16.120,11.739 L16.569,11.554 L17.048,11.377 C17.207,11.325 17.366,11.272 17.524,11.220 C17.683,11.170 17.843,11.126 18.002,11.080 C18.161,11.035 18.322,10.997 18.481,10.956 C19.119,10.802 19.755,10.693 20.372,10.615 C20.989,10.535 21.589,10.502 22.157,10.486 C22.725,10.470 23.261,10.488 23.754,10.516 C24.248,10.544 24.698,10.594 25.095,10.646 C25.493,10.697 25.837,10.759 26.120,10.814 C26.403,10.868 26.623,10.922 26.773,10.959 C26.848,10.978 26.906,10.994 26.945,11.005 C26.985,11.016 27.006,11.022 27.006,11.022 C27.109,11.051 27.169,11.159 27.140,11.262 C27.113,11.356 27.023,11.414 26.931,11.403 L26.923,11.402 C26.923,11.402 26.845,11.393 26.698,11.376 C26.550,11.358 26.330,11.339 26.052,11.316 C25.773,11.293 25.433,11.275 25.044,11.259 C24.655,11.244 24.215,11.241 23.738,11.245 C23.260,11.252 22.743,11.278 22.199,11.318 C21.654,11.359 21.084,11.432 20.498,11.522 C19.913,11.614 19.314,11.740 18.715,11.898 C18.566,11.940 18.415,11.978 18.266,12.023 C18.118,12.069 17.968,12.112 17.819,12.161 C17.671,12.211 17.523,12.261 17.375,12.311 L16.942,12.473 L16.493,12.658 L16.465,12.670 L16.446,12.678 L16.393,12.701 L16.287,12.748 C16.216,12.779 16.147,12.814 16.077,12.846 C15.799,12.980 15.528,13.124 15.265,13.278 C14.740,13.588 14.246,13.933 13.801,14.309 C13.578,14.496 13.368,14.691 13.168,14.889 C12.966,15.085 12.778,15.286 12.601,15.488 C12.424,15.691 12.260,15.895 12.107,16.098 C11.953,16.299 11.810,16.499 11.679,16.696 C11.548,16.893 11.429,17.086 11.319,17.272 C11.208,17.458 11.108,17.638 11.019,17.809 C10.841,18.152 10.698,18.458 10.589,18.715 C10.481,18.971 10.403,19.176 10.355,19.316 C10.331,19.386 10.313,19.439 10.301,19.476 C10.290,19.510 10.284,19.528 10.284,19.528 L10.281,19.536 C10.249,19.639 10.140,19.696 10.038,19.663 C9.946,19.633 9.892,19.541 9.906,19.448 C9.906,19.448 9.909,19.426 9.915,19.384 C9.922,19.342 9.932,19.282 9.947,19.205 Z"/>
</svg>