<svg 
 xmlns="http://www.w3.org/2000/svg"
 xmlns:xlink="http://www.w3.org/1999/xlink"
 width="43px" height="42px">
<path fill-rule="evenodd"  fill="rgb(100, 100, 100)"
 d="M21.029,41.981 C9.434,41.981 -0.000,32.592 -0.000,21.052 C-0.000,9.512 9.434,0.124 21.029,0.124 C32.624,0.124 42.057,9.512 42.057,21.052 C42.057,32.592 32.624,41.981 21.029,41.981 ZM30.047,16.424 C30.047,14.427 28.414,12.802 26.407,12.802 L15.650,12.802 C13.644,12.802 12.011,14.427 12.011,16.424 L12.011,26.599 C12.011,28.597 13.644,30.221 15.650,30.221 L26.407,30.221 C28.414,30.221 30.047,28.597 30.047,26.599 L30.047,16.424 ZM26.407,28.638 L15.650,28.638 C14.521,28.638 13.602,27.723 13.602,26.599 L13.602,16.424 C13.602,15.300 14.521,14.386 15.650,14.386 L26.407,14.386 C27.536,14.386 28.456,15.300 28.456,16.424 L28.456,26.599 C28.456,27.723 27.536,28.638 26.407,28.638 ZM21.029,16.642 C18.330,16.642 16.135,18.826 16.135,21.512 C16.135,24.197 18.330,26.383 21.029,26.383 C23.728,26.383 25.922,24.197 25.922,21.512 C25.922,18.826 23.728,16.642 21.029,16.642 ZM25.898,15.647 C25.440,15.647 25.068,16.017 25.068,16.474 C25.068,16.929 25.440,17.298 25.898,17.298 C26.356,17.298 26.728,16.929 26.728,16.474 C26.728,16.017 26.356,15.647 25.898,15.647 ZM21.029,24.799 C19.208,24.799 17.726,23.324 17.726,21.512 C17.726,19.699 19.208,18.225 21.029,18.225 C22.850,18.225 24.331,19.699 24.331,21.512 C24.331,23.324 22.850,24.799 21.029,24.799 Z"/>
</svg>