<svg 
 xmlns="http://www.w3.org/2000/svg"
 xmlns:xlink="http://www.w3.org/1999/xlink"
 width="24px" height="24px">
<path fill-rule="evenodd"  fill="rgb(23, 23, 23)"
 d="M23.681,12.559 C23.438,12.801 23.044,12.801 22.801,12.559 L12.434,2.198 L1.890,12.736 C1.768,12.858 1.609,12.919 1.449,12.919 C1.290,12.919 1.131,12.858 1.009,12.736 C0.766,12.493 0.766,12.099 1.009,11.856 L11.994,0.878 C12.237,0.635 12.631,0.635 12.874,0.878 L23.681,11.678 C23.924,11.922 23.924,12.316 23.681,12.559 ZM3.984,11.928 C4.328,11.928 4.607,12.207 4.607,12.550 L4.607,22.371 L9.410,22.371 L9.410,15.577 C9.410,15.233 9.689,14.955 10.032,14.955 L14.658,14.955 C15.002,14.955 15.280,15.233 15.280,15.577 L15.280,22.371 L20.083,22.371 L20.083,12.550 C20.083,12.207 20.362,11.928 20.706,11.928 C21.050,11.928 21.329,12.207 21.329,12.550 L21.329,22.993 C21.329,23.337 21.050,23.616 20.706,23.616 L14.658,23.616 C14.314,23.616 14.035,23.337 14.035,22.993 L14.035,16.199 L10.655,16.199 L10.655,22.993 C10.655,23.337 10.376,23.616 10.032,23.616 L3.984,23.616 C3.640,23.616 3.362,23.337 3.362,22.993 L3.362,12.550 C3.362,12.207 3.640,11.928 3.984,11.928 Z"/>
</svg>