<svg 
 xmlns="http://www.w3.org/2000/svg"
 xmlns:xlink="http://www.w3.org/1999/xlink"
 width="43px" height="43px">
<path fill-rule="evenodd"  fill="rgb(236, 0, 140)"
 d="M21.374,42.132 C9.779,42.132 0.345,32.743 0.345,21.203 C0.345,9.663 9.779,0.274 21.374,0.274 C32.969,0.274 42.404,9.663 42.404,21.203 C42.404,32.743 32.969,42.132 21.374,42.132 ZM27.568,23.745 C28.977,22.571 30.407,19.400 29.449,15.659 C29.160,14.529 28.402,12.853 28.402,12.853 C28.402,12.853 27.167,15.189 24.239,16.656 C22.915,17.319 21.875,17.679 21.096,17.873 C21.069,15.716 19.293,13.977 17.105,13.977 C14.909,13.977 13.129,15.727 13.112,17.893 L13.111,17.893 L10.585,18.770 L13.111,20.173 C13.111,20.173 12.818,25.315 18.984,28.238 C25.151,31.161 31.023,26.894 31.023,26.894 C31.023,26.894 27.765,26.430 25.497,24.836 C25.881,24.759 26.641,24.515 27.568,23.745 ZM16.148,18.177 C15.001,18.177 15.001,16.407 16.148,16.407 C17.295,16.407 17.295,18.177 16.148,18.177 Z"/>
</svg>