<?xml version="1.0" encoding="UTF-8" standalone="no"?>
<!-- Generator: Adobe Illustrator 13.0.0, SVG Export Plug-In  -->

<svg
   xmlns:dc="http://purl.org/dc/elements/1.1/"
   xmlns:cc="http://creativecommons.org/ns#"
   xmlns:rdf="http://www.w3.org/1999/02/22-rdf-syntax-ns#"
   xmlns:svg="http://www.w3.org/2000/svg"
   xmlns="http://www.w3.org/2000/svg"
   xmlns:sodipodi="http://sodipodi.sourceforge.net/DTD/sodipodi-0.dtd"
   xmlns:inkscape="http://www.inkscape.org/namespaces/inkscape"
   version="1.1"
   x="0px"
   y="0px"
   width="80"
   height="80"
   viewBox="-0.864 -0.333 80 80"
   xml:space="preserve"
   id="svg6"
   sodipodi:docname="fl-sm-rightt.svg"
   inkscape:version="0.92.4 (5da689c313, 2019-01-14)"><metadata
   id="metadata10"><rdf:RDF><cc:Work
       rdf:about=""><dc:format>image/svg+xml</dc:format><dc:type
         rdf:resource="http://purl.org/dc/dcmitype/StillImage" /><dc:title></dc:title></cc:Work></rdf:RDF></metadata><sodipodi:namedview
   pagecolor="#ffffff"
   bordercolor="#666666"
   borderopacity="1"
   objecttolerance="10"
   gridtolerance="10"
   guidetolerance="10"
   inkscape:pageopacity="0"
   inkscape:pageshadow="2"
   inkscape:window-width="1920"
   inkscape:window-height="1017"
   id="namedview8"
   showgrid="false"
   inkscape:zoom="8"
   inkscape:cx="38.126254"
   inkscape:cy="37.890674"
   inkscape:window-x="-8"
   inkscape:window-y="-8"
   inkscape:window-maximized="1"
   inkscape:current-layer="svg6" />
<defs
   id="defs2">
</defs>
<path
   d="m 46.230646,11.82398 c 1.229679,10.731668 -6.260099,22.021744 -21.239202,24.145686 -0.522144,0.07408 -1.055322,0.136278 -1.593915,0.185614 v 0.632966 c 10.159521,-0.913636 17.209368,-5.119401 21.898082,-7.637319 6.077417,-3.263964 12.064503,-0.614726 14.743478,0.675096 3.038712,1.463262 15.321267,8.092109 19.485361,9.780181 -4.164094,1.688072 -16.446649,8.267362 -19.485361,9.730628 -2.678975,1.290269 -8.666061,3.939284 -14.743478,0.675319 -4.656725,-2.501022 -11.784515,-6.72841 -21.898082,-7.709627 v 0.722622 c 0.538819,0.04933 1.071771,0.111503 1.593915,0.185611 14.979329,2.124169 22.468881,13.414246 21.239202,24.145688 -1.375188,12.002564 -20.344929,18.444448 -24.928229,-0.111727 5.589294,3.018211 15.65014,-1.676583 9.948901,-12.520429 -1.854305,-3.526614 -4.816659,-5.983035 -7.853789,-6.999167 v 1.816694 c 0,1.71375 -1.006669,3.103132 -2.248737,3.103132 -1.242061,0 -2.24873,-1.389382 -2.24873,-3.103132 v -2.211343 c -0.979413,0.180881 -1.906574,0.55323 -2.739569,1.13394 -3.689028,2.571528 -1.676807,11.183757 6.371603,6.37701 1.069296,8.123873 -6.595288,10.282731 -10.731444,7.935333 -5.273477,-2.579861 -6.854101,-13.848539 0.670813,-18.112868 1.80476,-1.022665 4.065205,-1.536025 6.428597,-1.701814 v -0.87039 c -1.786737,0.0074 -3.654565,0.119386 -5.605959,0.358158 -1.83494,2.848818 -5.794722,1.738303 -8.161938,5.346461 -0.05966,-2.26653 0.384734,-4.11566 1.219762,-4.712364 -2.421511,0 -4.462779,-2.166291 -7.401477,-3.578424 2.955138,-1.311893 5.427328,-3.425702 7.401477,-3.425702 -0.835028,-0.596478 -1.279457,-2.445609 -1.219762,-4.712361 2.029561,3.308343 5.747643,2.00433 8.403413,5.239689 1.868053,0.228634 3.653656,0.339686 5.364484,0.357932 V 36.219024 C 16.53667,36.053457 14.276225,35.539653 12.471465,34.517211 4.946775,30.252878 6.527175,18.9842 11.800652,16.404339 c 4.135931,-2.347619 11.80074,-0.188764 10.731444,7.935337 -8.04841,-4.806975 -10.060631,3.805483 -6.371603,6.377011 0.832995,0.58048 1.760156,0.952833 2.739569,1.133714 v -2.381416 c 0,-1.713744 1.006894,-3.10313 2.24873,-3.10313 1.242293,0 2.248737,1.389386 2.248737,3.10313 v 1.986991 c 3.03713,-1.016359 5.999484,-3.47255 7.853789,-6.99917 C 36.952557,13.612967 26.891711,8.91817 21.302417,11.936377 25.885483,-6.6206991 44.855233,-0.17858706 46.230646,11.82398 Z"
   id="path4"
   inkscape:connector-curvature="0"
   style="stroke-width:0.22525644" />
</svg>